%TF.GenerationSoftware,KiCad,Pcbnew,7.0.5*%
%TF.CreationDate,2024-01-16T15:46:26+01:00*%
%TF.ProjectId,mo5-connector-pcb,6d6f352d-636f-46e6-9e65-63746f722d70,rev?*%
%TF.SameCoordinates,Original*%
%TF.FileFunction,Copper,L2,Bot*%
%TF.FilePolarity,Positive*%
%FSLAX46Y46*%
G04 Gerber Fmt 4.6, Leading zero omitted, Abs format (unit mm)*
G04 Created by KiCad (PCBNEW 7.0.5) date 2024-01-16 15:46:26*
%MOMM*%
%LPD*%
G01*
G04 APERTURE LIST*
G04 Aperture macros list*
%AMRoundRect*
0 Rectangle with rounded corners*
0 $1 Rounding radius*
0 $2 $3 $4 $5 $6 $7 $8 $9 X,Y pos of 4 corners*
0 Add a 4 corners polygon primitive as box body*
4,1,4,$2,$3,$4,$5,$6,$7,$8,$9,$2,$3,0*
0 Add four circle primitives for the rounded corners*
1,1,$1+$1,$2,$3*
1,1,$1+$1,$4,$5*
1,1,$1+$1,$6,$7*
1,1,$1+$1,$8,$9*
0 Add four rect primitives between the rounded corners*
20,1,$1+$1,$2,$3,$4,$5,0*
20,1,$1+$1,$4,$5,$6,$7,0*
20,1,$1+$1,$6,$7,$8,$9,0*
20,1,$1+$1,$8,$9,$2,$3,0*%
G04 Aperture macros list end*
%ADD10C,0.187500*%
%TA.AperFunction,NonConductor*%
%ADD11C,0.187500*%
%TD*%
%TA.AperFunction,ComponentPad*%
%ADD12O,2.000000X3.000000*%
%TD*%
%TA.AperFunction,SMDPad,CuDef*%
%ADD13RoundRect,0.250000X-0.250000X-0.750000X0.250000X-0.750000X0.250000X0.750000X-0.250000X0.750000X0*%
%TD*%
%TA.AperFunction,SMDPad,CuDef*%
%ADD14RoundRect,0.250000X0.250000X0.750000X-0.250000X0.750000X-0.250000X-0.750000X0.250000X-0.750000X0*%
%TD*%
%TA.AperFunction,SMDPad,CuDef*%
%ADD15R,10.000000X5.000000*%
%TD*%
%TA.AperFunction,Conductor*%
%ADD16C,2.000000*%
%TD*%
%TA.AperFunction,Conductor*%
%ADD17C,1.000000*%
%TD*%
G04 APERTURE END LIST*
D10*
D11*
X148562497Y-77919321D02*
X148562497Y-79419321D01*
X148562497Y-79419321D02*
X149062497Y-78347892D01*
X149062497Y-78347892D02*
X149562497Y-79419321D01*
X149562497Y-79419321D02*
X149562497Y-77919321D01*
X150562498Y-79419321D02*
X150848212Y-79419321D01*
X150848212Y-79419321D02*
X150991069Y-79347892D01*
X150991069Y-79347892D02*
X151133926Y-79205035D01*
X151133926Y-79205035D02*
X151205355Y-78919321D01*
X151205355Y-78919321D02*
X151205355Y-78419321D01*
X151205355Y-78419321D02*
X151133926Y-78133607D01*
X151133926Y-78133607D02*
X150991069Y-77990750D01*
X150991069Y-77990750D02*
X150848212Y-77919321D01*
X150848212Y-77919321D02*
X150562498Y-77919321D01*
X150562498Y-77919321D02*
X150419641Y-77990750D01*
X150419641Y-77990750D02*
X150276783Y-78133607D01*
X150276783Y-78133607D02*
X150205355Y-78419321D01*
X150205355Y-78419321D02*
X150205355Y-78919321D01*
X150205355Y-78919321D02*
X150276783Y-79205035D01*
X150276783Y-79205035D02*
X150419641Y-79347892D01*
X150419641Y-79347892D02*
X150562498Y-79419321D01*
X152562498Y-79419321D02*
X151848212Y-79419321D01*
X151848212Y-79419321D02*
X151776784Y-78705035D01*
X151776784Y-78705035D02*
X151848212Y-78776464D01*
X151848212Y-78776464D02*
X151991070Y-78847892D01*
X151991070Y-78847892D02*
X152348212Y-78847892D01*
X152348212Y-78847892D02*
X152491070Y-78776464D01*
X152491070Y-78776464D02*
X152562498Y-78705035D01*
X152562498Y-78705035D02*
X152633927Y-78562178D01*
X152633927Y-78562178D02*
X152633927Y-78205035D01*
X152633927Y-78205035D02*
X152562498Y-78062178D01*
X152562498Y-78062178D02*
X152491070Y-77990750D01*
X152491070Y-77990750D02*
X152348212Y-77919321D01*
X152348212Y-77919321D02*
X151991070Y-77919321D01*
X151991070Y-77919321D02*
X151848212Y-77990750D01*
X151848212Y-77990750D02*
X151776784Y-78062178D01*
X155276783Y-78062178D02*
X155205355Y-77990750D01*
X155205355Y-77990750D02*
X154991069Y-77919321D01*
X154991069Y-77919321D02*
X154848212Y-77919321D01*
X154848212Y-77919321D02*
X154633926Y-77990750D01*
X154633926Y-77990750D02*
X154491069Y-78133607D01*
X154491069Y-78133607D02*
X154419640Y-78276464D01*
X154419640Y-78276464D02*
X154348212Y-78562178D01*
X154348212Y-78562178D02*
X154348212Y-78776464D01*
X154348212Y-78776464D02*
X154419640Y-79062178D01*
X154419640Y-79062178D02*
X154491069Y-79205035D01*
X154491069Y-79205035D02*
X154633926Y-79347892D01*
X154633926Y-79347892D02*
X154848212Y-79419321D01*
X154848212Y-79419321D02*
X154991069Y-79419321D01*
X154991069Y-79419321D02*
X155205355Y-79347892D01*
X155205355Y-79347892D02*
X155276783Y-79276464D01*
X156133926Y-77919321D02*
X155991069Y-77990750D01*
X155991069Y-77990750D02*
X155919640Y-78062178D01*
X155919640Y-78062178D02*
X155848212Y-78205035D01*
X155848212Y-78205035D02*
X155848212Y-78633607D01*
X155848212Y-78633607D02*
X155919640Y-78776464D01*
X155919640Y-78776464D02*
X155991069Y-78847892D01*
X155991069Y-78847892D02*
X156133926Y-78919321D01*
X156133926Y-78919321D02*
X156348212Y-78919321D01*
X156348212Y-78919321D02*
X156491069Y-78847892D01*
X156491069Y-78847892D02*
X156562498Y-78776464D01*
X156562498Y-78776464D02*
X156633926Y-78633607D01*
X156633926Y-78633607D02*
X156633926Y-78205035D01*
X156633926Y-78205035D02*
X156562498Y-78062178D01*
X156562498Y-78062178D02*
X156491069Y-77990750D01*
X156491069Y-77990750D02*
X156348212Y-77919321D01*
X156348212Y-77919321D02*
X156133926Y-77919321D01*
X157276783Y-78919321D02*
X157276783Y-77919321D01*
X157276783Y-78776464D02*
X157348212Y-78847892D01*
X157348212Y-78847892D02*
X157491069Y-78919321D01*
X157491069Y-78919321D02*
X157705355Y-78919321D01*
X157705355Y-78919321D02*
X157848212Y-78847892D01*
X157848212Y-78847892D02*
X157919641Y-78705035D01*
X157919641Y-78705035D02*
X157919641Y-77919321D01*
X158633926Y-78919321D02*
X158633926Y-77919321D01*
X158633926Y-78776464D02*
X158705355Y-78847892D01*
X158705355Y-78847892D02*
X158848212Y-78919321D01*
X158848212Y-78919321D02*
X159062498Y-78919321D01*
X159062498Y-78919321D02*
X159205355Y-78847892D01*
X159205355Y-78847892D02*
X159276784Y-78705035D01*
X159276784Y-78705035D02*
X159276784Y-77919321D01*
X160562498Y-77990750D02*
X160419641Y-77919321D01*
X160419641Y-77919321D02*
X160133927Y-77919321D01*
X160133927Y-77919321D02*
X159991069Y-77990750D01*
X159991069Y-77990750D02*
X159919641Y-78133607D01*
X159919641Y-78133607D02*
X159919641Y-78705035D01*
X159919641Y-78705035D02*
X159991069Y-78847892D01*
X159991069Y-78847892D02*
X160133927Y-78919321D01*
X160133927Y-78919321D02*
X160419641Y-78919321D01*
X160419641Y-78919321D02*
X160562498Y-78847892D01*
X160562498Y-78847892D02*
X160633927Y-78705035D01*
X160633927Y-78705035D02*
X160633927Y-78562178D01*
X160633927Y-78562178D02*
X159919641Y-78419321D01*
X161919641Y-77990750D02*
X161776783Y-77919321D01*
X161776783Y-77919321D02*
X161491069Y-77919321D01*
X161491069Y-77919321D02*
X161348212Y-77990750D01*
X161348212Y-77990750D02*
X161276783Y-78062178D01*
X161276783Y-78062178D02*
X161205355Y-78205035D01*
X161205355Y-78205035D02*
X161205355Y-78633607D01*
X161205355Y-78633607D02*
X161276783Y-78776464D01*
X161276783Y-78776464D02*
X161348212Y-78847892D01*
X161348212Y-78847892D02*
X161491069Y-78919321D01*
X161491069Y-78919321D02*
X161776783Y-78919321D01*
X161776783Y-78919321D02*
X161919641Y-78847892D01*
X162348212Y-78919321D02*
X162919640Y-78919321D01*
X162562497Y-79419321D02*
X162562497Y-78133607D01*
X162562497Y-78133607D02*
X162633926Y-77990750D01*
X162633926Y-77990750D02*
X162776783Y-77919321D01*
X162776783Y-77919321D02*
X162919640Y-77919321D01*
X163633926Y-77919321D02*
X163491069Y-77990750D01*
X163491069Y-77990750D02*
X163419640Y-78062178D01*
X163419640Y-78062178D02*
X163348212Y-78205035D01*
X163348212Y-78205035D02*
X163348212Y-78633607D01*
X163348212Y-78633607D02*
X163419640Y-78776464D01*
X163419640Y-78776464D02*
X163491069Y-78847892D01*
X163491069Y-78847892D02*
X163633926Y-78919321D01*
X163633926Y-78919321D02*
X163848212Y-78919321D01*
X163848212Y-78919321D02*
X163991069Y-78847892D01*
X163991069Y-78847892D02*
X164062498Y-78776464D01*
X164062498Y-78776464D02*
X164133926Y-78633607D01*
X164133926Y-78633607D02*
X164133926Y-78205035D01*
X164133926Y-78205035D02*
X164062498Y-78062178D01*
X164062498Y-78062178D02*
X163991069Y-77990750D01*
X163991069Y-77990750D02*
X163848212Y-77919321D01*
X163848212Y-77919321D02*
X163633926Y-77919321D01*
X164776783Y-77919321D02*
X164776783Y-78919321D01*
X164776783Y-78633607D02*
X164848212Y-78776464D01*
X164848212Y-78776464D02*
X164919641Y-78847892D01*
X164919641Y-78847892D02*
X165062498Y-78919321D01*
X165062498Y-78919321D02*
X165205355Y-78919321D01*
X167348211Y-78705035D02*
X167562497Y-78633607D01*
X167562497Y-78633607D02*
X167633926Y-78562178D01*
X167633926Y-78562178D02*
X167705354Y-78419321D01*
X167705354Y-78419321D02*
X167705354Y-78205035D01*
X167705354Y-78205035D02*
X167633926Y-78062178D01*
X167633926Y-78062178D02*
X167562497Y-77990750D01*
X167562497Y-77990750D02*
X167419640Y-77919321D01*
X167419640Y-77919321D02*
X166848211Y-77919321D01*
X166848211Y-77919321D02*
X166848211Y-79419321D01*
X166848211Y-79419321D02*
X167348211Y-79419321D01*
X167348211Y-79419321D02*
X167491069Y-79347892D01*
X167491069Y-79347892D02*
X167562497Y-79276464D01*
X167562497Y-79276464D02*
X167633926Y-79133607D01*
X167633926Y-79133607D02*
X167633926Y-78990750D01*
X167633926Y-78990750D02*
X167562497Y-78847892D01*
X167562497Y-78847892D02*
X167491069Y-78776464D01*
X167491069Y-78776464D02*
X167348211Y-78705035D01*
X167348211Y-78705035D02*
X166848211Y-78705035D01*
X168562497Y-77919321D02*
X168419640Y-77990750D01*
X168419640Y-77990750D02*
X168348211Y-78062178D01*
X168348211Y-78062178D02*
X168276783Y-78205035D01*
X168276783Y-78205035D02*
X168276783Y-78633607D01*
X168276783Y-78633607D02*
X168348211Y-78776464D01*
X168348211Y-78776464D02*
X168419640Y-78847892D01*
X168419640Y-78847892D02*
X168562497Y-78919321D01*
X168562497Y-78919321D02*
X168776783Y-78919321D01*
X168776783Y-78919321D02*
X168919640Y-78847892D01*
X168919640Y-78847892D02*
X168991069Y-78776464D01*
X168991069Y-78776464D02*
X169062497Y-78633607D01*
X169062497Y-78633607D02*
X169062497Y-78205035D01*
X169062497Y-78205035D02*
X168991069Y-78062178D01*
X168991069Y-78062178D02*
X168919640Y-77990750D01*
X168919640Y-77990750D02*
X168776783Y-77919321D01*
X168776783Y-77919321D02*
X168562497Y-77919321D01*
X170348212Y-77919321D02*
X170348212Y-78705035D01*
X170348212Y-78705035D02*
X170276783Y-78847892D01*
X170276783Y-78847892D02*
X170133926Y-78919321D01*
X170133926Y-78919321D02*
X169848212Y-78919321D01*
X169848212Y-78919321D02*
X169705354Y-78847892D01*
X170348212Y-77990750D02*
X170205354Y-77919321D01*
X170205354Y-77919321D02*
X169848212Y-77919321D01*
X169848212Y-77919321D02*
X169705354Y-77990750D01*
X169705354Y-77990750D02*
X169633926Y-78133607D01*
X169633926Y-78133607D02*
X169633926Y-78276464D01*
X169633926Y-78276464D02*
X169705354Y-78419321D01*
X169705354Y-78419321D02*
X169848212Y-78490750D01*
X169848212Y-78490750D02*
X170205354Y-78490750D01*
X170205354Y-78490750D02*
X170348212Y-78562178D01*
X171062497Y-77919321D02*
X171062497Y-78919321D01*
X171062497Y-78633607D02*
X171133926Y-78776464D01*
X171133926Y-78776464D02*
X171205355Y-78847892D01*
X171205355Y-78847892D02*
X171348212Y-78919321D01*
X171348212Y-78919321D02*
X171491069Y-78919321D01*
X172633926Y-77919321D02*
X172633926Y-79419321D01*
X172633926Y-77990750D02*
X172491068Y-77919321D01*
X172491068Y-77919321D02*
X172205354Y-77919321D01*
X172205354Y-77919321D02*
X172062497Y-77990750D01*
X172062497Y-77990750D02*
X171991068Y-78062178D01*
X171991068Y-78062178D02*
X171919640Y-78205035D01*
X171919640Y-78205035D02*
X171919640Y-78633607D01*
X171919640Y-78633607D02*
X171991068Y-78776464D01*
X171991068Y-78776464D02*
X172062497Y-78847892D01*
X172062497Y-78847892D02*
X172205354Y-78919321D01*
X172205354Y-78919321D02*
X172491068Y-78919321D01*
X172491068Y-78919321D02*
X172633926Y-78847892D01*
X149348212Y-76932892D02*
X149205355Y-77004321D01*
X149205355Y-77004321D02*
X148991069Y-77004321D01*
X148991069Y-77004321D02*
X148776783Y-76932892D01*
X148776783Y-76932892D02*
X148633926Y-76790035D01*
X148633926Y-76790035D02*
X148562497Y-76647178D01*
X148562497Y-76647178D02*
X148491069Y-76361464D01*
X148491069Y-76361464D02*
X148491069Y-76147178D01*
X148491069Y-76147178D02*
X148562497Y-75861464D01*
X148562497Y-75861464D02*
X148633926Y-75718607D01*
X148633926Y-75718607D02*
X148776783Y-75575750D01*
X148776783Y-75575750D02*
X148991069Y-75504321D01*
X148991069Y-75504321D02*
X149133926Y-75504321D01*
X149133926Y-75504321D02*
X149348212Y-75575750D01*
X149348212Y-75575750D02*
X149419640Y-75647178D01*
X149419640Y-75647178D02*
X149419640Y-76147178D01*
X149419640Y-76147178D02*
X149133926Y-76147178D01*
X150062497Y-75504321D02*
X150062497Y-76504321D01*
X150062497Y-76218607D02*
X150133926Y-76361464D01*
X150133926Y-76361464D02*
X150205355Y-76432892D01*
X150205355Y-76432892D02*
X150348212Y-76504321D01*
X150348212Y-76504321D02*
X150491069Y-76504321D01*
X151205354Y-75504321D02*
X151062497Y-75575750D01*
X151062497Y-75575750D02*
X150991068Y-75647178D01*
X150991068Y-75647178D02*
X150919640Y-75790035D01*
X150919640Y-75790035D02*
X150919640Y-76218607D01*
X150919640Y-76218607D02*
X150991068Y-76361464D01*
X150991068Y-76361464D02*
X151062497Y-76432892D01*
X151062497Y-76432892D02*
X151205354Y-76504321D01*
X151205354Y-76504321D02*
X151419640Y-76504321D01*
X151419640Y-76504321D02*
X151562497Y-76432892D01*
X151562497Y-76432892D02*
X151633926Y-76361464D01*
X151633926Y-76361464D02*
X151705354Y-76218607D01*
X151705354Y-76218607D02*
X151705354Y-75790035D01*
X151705354Y-75790035D02*
X151633926Y-75647178D01*
X151633926Y-75647178D02*
X151562497Y-75575750D01*
X151562497Y-75575750D02*
X151419640Y-75504321D01*
X151419640Y-75504321D02*
X151205354Y-75504321D01*
X152919640Y-75575750D02*
X152776783Y-75504321D01*
X152776783Y-75504321D02*
X152491069Y-75504321D01*
X152491069Y-75504321D02*
X152348211Y-75575750D01*
X152348211Y-75575750D02*
X152276783Y-75718607D01*
X152276783Y-75718607D02*
X152276783Y-76290035D01*
X152276783Y-76290035D02*
X152348211Y-76432892D01*
X152348211Y-76432892D02*
X152491069Y-76504321D01*
X152491069Y-76504321D02*
X152776783Y-76504321D01*
X152776783Y-76504321D02*
X152919640Y-76432892D01*
X152919640Y-76432892D02*
X152991069Y-76290035D01*
X152991069Y-76290035D02*
X152991069Y-76147178D01*
X152991069Y-76147178D02*
X152276783Y-76004321D01*
X153633925Y-76504321D02*
X153633925Y-75004321D01*
X153633925Y-76432892D02*
X153776783Y-76504321D01*
X153776783Y-76504321D02*
X154062497Y-76504321D01*
X154062497Y-76504321D02*
X154205354Y-76432892D01*
X154205354Y-76432892D02*
X154276783Y-76361464D01*
X154276783Y-76361464D02*
X154348211Y-76218607D01*
X154348211Y-76218607D02*
X154348211Y-75790035D01*
X154348211Y-75790035D02*
X154276783Y-75647178D01*
X154276783Y-75647178D02*
X154205354Y-75575750D01*
X154205354Y-75575750D02*
X154062497Y-75504321D01*
X154062497Y-75504321D02*
X153776783Y-75504321D01*
X153776783Y-75504321D02*
X153633925Y-75575750D01*
X156919640Y-75504321D02*
X156062497Y-75504321D01*
X156491068Y-75504321D02*
X156491068Y-77004321D01*
X156491068Y-77004321D02*
X156348211Y-76790035D01*
X156348211Y-76790035D02*
X156205354Y-76647178D01*
X156205354Y-76647178D02*
X156062497Y-76575750D01*
X157848211Y-77004321D02*
X157991068Y-77004321D01*
X157991068Y-77004321D02*
X158133925Y-76932892D01*
X158133925Y-76932892D02*
X158205354Y-76861464D01*
X158205354Y-76861464D02*
X158276782Y-76718607D01*
X158276782Y-76718607D02*
X158348211Y-76432892D01*
X158348211Y-76432892D02*
X158348211Y-76075750D01*
X158348211Y-76075750D02*
X158276782Y-75790035D01*
X158276782Y-75790035D02*
X158205354Y-75647178D01*
X158205354Y-75647178D02*
X158133925Y-75575750D01*
X158133925Y-75575750D02*
X157991068Y-75504321D01*
X157991068Y-75504321D02*
X157848211Y-75504321D01*
X157848211Y-75504321D02*
X157705354Y-75575750D01*
X157705354Y-75575750D02*
X157633925Y-75647178D01*
X157633925Y-75647178D02*
X157562496Y-75790035D01*
X157562496Y-75790035D02*
X157491068Y-76075750D01*
X157491068Y-76075750D02*
X157491068Y-76432892D01*
X157491068Y-76432892D02*
X157562496Y-76718607D01*
X157562496Y-76718607D02*
X157633925Y-76861464D01*
X157633925Y-76861464D02*
X157705354Y-76932892D01*
X157705354Y-76932892D02*
X157848211Y-77004321D01*
D12*
%TO.P,A1,1,NC*%
%TO.N,unconnected-(A1-NC-Pad1)*%
X136506976Y-54610000D03*
%TO.P,A1,2,IOREF*%
%TO.N,unconnected-(A1-IOREF-Pad2)*%
X139046976Y-54610000D03*
%TO.P,A1,3,~{RESET}*%
%TO.N,unconnected-(A1-~{RESET}-Pad3)*%
X141586976Y-54610000D03*
%TO.P,A1,4,3V3*%
%TO.N,Net-(A1-3V3)*%
X144126976Y-54610000D03*
%TO.P,A1,5,+5V*%
%TO.N,unconnected-(A1-+5V-Pad5)*%
X146666976Y-54610000D03*
%TO.P,A1,6,GND*%
%TO.N,Net-(A1-GND-Pad29)*%
X149206976Y-54610000D03*
%TO.P,A1,7,GND*%
X151746976Y-54610000D03*
%TO.P,A1,8,VIN*%
%TO.N,Net-(A1-VIN)*%
X154286976Y-54610000D03*
%TO.P,A1,9,A0*%
%TO.N,Net-(A1-A0)*%
X159366976Y-54610000D03*
%TO.P,A1,10,A1*%
%TO.N,Net-(A1-A1)*%
X161906976Y-54610000D03*
%TO.P,A1,11,A2*%
%TO.N,Net-(A1-A2)*%
X164446976Y-54610000D03*
%TO.P,A1,12,A3*%
%TO.N,Net-(A1-A3)*%
X166986976Y-54610000D03*
%TO.P,A1,13,SDA/A4*%
%TO.N,unconnected-(A1-SDA{slash}A4-Pad13)*%
X169526976Y-54610000D03*
%TO.P,A1,14,SCL/A5*%
%TO.N,unconnected-(A1-SCL{slash}A5-Pad14)*%
X172066976Y-54610000D03*
%TO.P,A1,15,D0/RX*%
%TO.N,Net-(A1-D0{slash}RX)*%
X172066976Y-102870000D03*
%TO.P,A1,16,D1/TX*%
%TO.N,Net-(A1-D1{slash}TX)*%
X169526976Y-102870000D03*
%TO.P,A1,17,D2*%
%TO.N,Net-(A1-D2)*%
X166986976Y-102870000D03*
%TO.P,A1,18,D3*%
%TO.N,Net-(A1-D3)*%
X164446976Y-102870000D03*
%TO.P,A1,19,D4*%
%TO.N,Net-(A1-D4)*%
X161906976Y-102870000D03*
%TO.P,A1,20,D5*%
%TO.N,Net-(A1-D5)*%
X159366976Y-102870000D03*
%TO.P,A1,21,D6*%
%TO.N,Net-(A1-D6)*%
X156826976Y-102870000D03*
%TO.P,A1,22,D7*%
%TO.N,Net-(A1-D7)*%
X154286976Y-102870000D03*
%TO.P,A1,23,D8*%
%TO.N,Net-(A1-D8)*%
X150226976Y-102870000D03*
%TO.P,A1,24,D9*%
%TO.N,Net-(A1-D9)*%
X147686976Y-102870000D03*
%TO.P,A1,25,D10*%
%TO.N,Net-(A1-D10)*%
X145146976Y-102870000D03*
%TO.P,A1,26,D11*%
%TO.N,Net-(A1-D11)*%
X142606976Y-102870000D03*
%TO.P,A1,27,D12*%
%TO.N,Net-(A1-D12)*%
X140066976Y-102870000D03*
%TO.P,A1,28,D13*%
%TO.N,Net-(A1-D13)*%
X137526976Y-102870000D03*
%TO.P,A1,29,GND*%
%TO.N,Net-(A1-GND-Pad29)*%
X134986976Y-102870000D03*
%TO.P,A1,30,AREF*%
%TO.N,unconnected-(A1-AREF-Pad30)*%
X132446976Y-102870000D03*
%TO.P,A1,31,SDA/A4*%
%TO.N,Net-(A1-SDA{slash}A4-Pad31)*%
X129906976Y-102870000D03*
%TO.P,A1,32,SCL/A5*%
%TO.N,Net-(A1-SCL{slash}A5-Pad32)*%
X127366976Y-102870000D03*
%TD*%
D13*
%TO.P,H16,1,1*%
%TO.N,Net-(A1-D8)*%
X150222976Y-94742000D03*
%TD*%
D14*
%TO.P,H9,1,1*%
%TO.N,Net-(A1-D4)*%
X161906976Y-94742000D03*
%TD*%
D13*
%TO.P,H12,1,1*%
%TO.N,Net-(A1-D7)*%
X154286976Y-94742000D03*
%TD*%
D14*
%TO.P,H4,1,1*%
%TO.N,Net-(A1-A0)*%
X159366976Y-64897000D03*
%TD*%
%TO.P,H8,1,1*%
%TO.N,Net-(A1-D3)*%
X164446976Y-94742000D03*
%TD*%
%TO.P,H10,1,1*%
%TO.N,Net-(A1-D5)*%
X159366976Y-94742000D03*
%TD*%
D15*
%TO.P,H21,1,1*%
%TO.N,Net-(A1-3V3)*%
X135998976Y-62103000D03*
%TD*%
D14*
%TO.P,H1,1,1*%
%TO.N,Net-(A1-A3)*%
X166986976Y-64897000D03*
%TD*%
%TO.P,H3,1,1*%
%TO.N,Net-(A1-A1)*%
X161906976Y-64897000D03*
%TD*%
D13*
%TO.P,H15,1,1*%
%TO.N,Net-(A1-D9)*%
X147682976Y-94742000D03*
%TD*%
D15*
%TO.P,H25,1,1*%
%TO.N,Net-(A1-GND-Pad29)*%
X136017000Y-87249000D03*
%TD*%
%TO.P,H24,1,1*%
%TO.N,Net-(A1-GND-Pad29)*%
X164827976Y-87249000D03*
%TD*%
D13*
%TO.P,H11,1,1*%
%TO.N,Net-(A1-D6)*%
X156826976Y-94742000D03*
%TD*%
D14*
%TO.P,H7,1,1*%
%TO.N,Net-(A1-D2)*%
X166986976Y-94742000D03*
%TD*%
D13*
%TO.P,H19,1,1*%
%TO.N,Net-(A1-SCL{slash}A5-Pad32)*%
X127362976Y-94742000D03*
%TD*%
D14*
%TO.P,H6,1,1*%
%TO.N,Net-(A1-D1{slash}TX)*%
X169526976Y-94742000D03*
%TD*%
D13*
%TO.P,H17,1,1*%
%TO.N,Net-(A1-D13)*%
X137522976Y-94742000D03*
%TD*%
%TO.P,H13,1,1*%
%TO.N,Net-(A1-D11)*%
X142602976Y-94742000D03*
%TD*%
%TO.P,H5,1,1*%
%TO.N,Net-(A1-D0{slash}RX)*%
X172066976Y-94742000D03*
%TD*%
%TO.P,H20,1,1*%
%TO.N,Net-(A1-SDA{slash}A4-Pad31)*%
X129902976Y-94742000D03*
%TD*%
%TO.P,H18,1,1*%
%TO.N,Net-(A1-D12)*%
X140062976Y-94742000D03*
%TD*%
D15*
%TO.P,H22,1,1*%
%TO.N,Net-(A1-VIN)*%
X135998976Y-77724000D03*
%TD*%
%TO.P,H23,1,1*%
%TO.N,Net-(A1-GND-Pad29)*%
X135998976Y-69977000D03*
%TD*%
D14*
%TO.P,H2,1,1*%
%TO.N,Net-(A1-A2)*%
X164446976Y-64897000D03*
%TD*%
D13*
%TO.P,H14,1,1*%
%TO.N,Net-(A1-D10)*%
X145142976Y-94742000D03*
%TD*%
D16*
%TO.N,Net-(A1-3V3)*%
X135998976Y-62103000D02*
X138498976Y-62103000D01*
X144126976Y-56475000D02*
X144126976Y-54610000D01*
X138498976Y-62103000D02*
X144126976Y-56475000D01*
%TO.N,Net-(A1-GND-Pad29)*%
X131172976Y-69977000D02*
X135998976Y-69977000D01*
X135744976Y-87249000D02*
X131807976Y-87249000D01*
X127235976Y-73914000D02*
X131172976Y-69977000D01*
X151746976Y-54610000D02*
X151746976Y-56729000D01*
X127235976Y-82677000D02*
X127235976Y-73914000D01*
X134986976Y-102870000D02*
X134986976Y-99553976D01*
X138498976Y-69977000D02*
X149206976Y-59269000D01*
X149206976Y-59269000D02*
X149206976Y-54610000D01*
X135744976Y-87249000D02*
X164827976Y-87249000D01*
X134112000Y-98679000D02*
X134112000Y-88881976D01*
X134986976Y-99553976D02*
X134112000Y-98679000D01*
X135998976Y-69977000D02*
X138498976Y-69977000D01*
X131807976Y-87249000D02*
X127235976Y-82677000D01*
X151746976Y-56729000D02*
X149206976Y-59269000D01*
X134112000Y-88881976D02*
X135744976Y-87249000D01*
%TO.N,Net-(A1-VIN)*%
X154286976Y-61936000D02*
X154286976Y-54610000D01*
X135998976Y-77724000D02*
X138498976Y-77724000D01*
X138498976Y-77724000D02*
X154286976Y-61936000D01*
D17*
%TO.N,Net-(A1-A0)*%
X159366976Y-54610000D02*
X159366976Y-64897000D01*
%TO.N,Net-(A1-A1)*%
X161906976Y-54610000D02*
X161906976Y-64897000D01*
%TO.N,Net-(A1-A2)*%
X164446976Y-64897000D02*
X164446976Y-54610000D01*
%TO.N,Net-(A1-A3)*%
X166986976Y-64897000D02*
X166986976Y-54610000D01*
%TO.N,Net-(A1-D0{slash}RX)*%
X172066976Y-94742000D02*
X172066976Y-102870000D01*
%TO.N,Net-(A1-D1{slash}TX)*%
X169526976Y-94742000D02*
X169526976Y-102870000D01*
%TO.N,Net-(A1-D2)*%
X166986976Y-94742000D02*
X166986976Y-102870000D01*
%TO.N,Net-(A1-D3)*%
X164446976Y-94742000D02*
X164446976Y-102870000D01*
%TO.N,Net-(A1-D4)*%
X161906976Y-94742000D02*
X161906976Y-102870000D01*
%TO.N,Net-(A1-D5)*%
X159366976Y-94742000D02*
X159366976Y-102870000D01*
%TO.N,Net-(A1-D6)*%
X156826976Y-94742000D02*
X156826976Y-102870000D01*
%TO.N,Net-(A1-D7)*%
X154286976Y-94742000D02*
X154286976Y-102870000D01*
%TO.N,Net-(A1-D8)*%
X150222976Y-94742000D02*
X150222976Y-102866000D01*
X150222976Y-102866000D02*
X150226976Y-102870000D01*
%TO.N,Net-(A1-D9)*%
X147682976Y-102866000D02*
X147686976Y-102870000D01*
X147682976Y-94742000D02*
X147682976Y-102866000D01*
%TO.N,Net-(A1-D10)*%
X145142976Y-94742000D02*
X145142976Y-102866000D01*
X145142976Y-102866000D02*
X145146976Y-102870000D01*
%TO.N,Net-(A1-D11)*%
X142602976Y-102866000D02*
X142606976Y-102870000D01*
X142602976Y-94742000D02*
X142602976Y-102866000D01*
%TO.N,Net-(A1-D12)*%
X140062976Y-94742000D02*
X140062976Y-102866000D01*
X140062976Y-102866000D02*
X140066976Y-102870000D01*
%TO.N,Net-(A1-D13)*%
X137522976Y-94742000D02*
X137522976Y-102866000D01*
X137522976Y-102866000D02*
X137526976Y-102870000D01*
%TO.N,Net-(A1-SDA{slash}A4-Pad31)*%
X129902976Y-94742000D02*
X129902976Y-102866000D01*
X129902976Y-102866000D02*
X129906976Y-102870000D01*
%TO.N,Net-(A1-SCL{slash}A5-Pad32)*%
X127362976Y-94742000D02*
X127362976Y-102866000D01*
X127362976Y-102866000D02*
X127366976Y-102870000D01*
%TD*%
%TA.AperFunction,NonConductor*%
G36*
X174169015Y-52090185D02*
G01*
X174214770Y-52142989D01*
X174225976Y-52194500D01*
X174225976Y-52452539D01*
X174206291Y-52519578D01*
X174153487Y-52565333D01*
X174084329Y-52575277D01*
X174020773Y-52546252D01*
X174006438Y-52531586D01*
X173893366Y-52394906D01*
X173776212Y-52284891D01*
X173740818Y-52224651D01*
X173743611Y-52154837D01*
X173783705Y-52097616D01*
X173848370Y-52071155D01*
X173861097Y-52070500D01*
X174101976Y-52070500D01*
X174169015Y-52090185D01*
G37*
%TD.AperFunction*%
%TA.AperFunction,NonConductor*%
G36*
X157639894Y-52090185D02*
G01*
X157685649Y-52142989D01*
X157695593Y-52212147D01*
X157666568Y-52275703D01*
X157657739Y-52284892D01*
X157540584Y-52394907D01*
X157540582Y-52394909D01*
X157340030Y-52637334D01*
X157340027Y-52637338D01*
X157171440Y-52902990D01*
X157171437Y-52902996D01*
X157037475Y-53187678D01*
X157037473Y-53187683D01*
X156944907Y-53472573D01*
X156905470Y-53530249D01*
X156841111Y-53557447D01*
X156772265Y-53545532D01*
X156720789Y-53498288D01*
X156709045Y-53472573D01*
X156616478Y-53187683D01*
X156616476Y-53187678D01*
X156482514Y-52902996D01*
X156482513Y-52902993D01*
X156313923Y-52637337D01*
X156313921Y-52637334D01*
X156113369Y-52394909D01*
X156113367Y-52394907D01*
X155996213Y-52284892D01*
X155960818Y-52224651D01*
X155963611Y-52154837D01*
X156003705Y-52097616D01*
X156068370Y-52071155D01*
X156081097Y-52070500D01*
X157572855Y-52070500D01*
X157639894Y-52090185D01*
G37*
%TD.AperFunction*%
%TA.AperFunction,NonConductor*%
G36*
X146454147Y-57603487D02*
G01*
X146509658Y-57610500D01*
X146582476Y-57610500D01*
X146649515Y-57630185D01*
X146695270Y-57682989D01*
X146706476Y-57734500D01*
X146706476Y-58181896D01*
X146686791Y-58248935D01*
X146670157Y-58269577D01*
X142711157Y-62228578D01*
X142649834Y-62262063D01*
X142580142Y-62257079D01*
X142524209Y-62215207D01*
X142499792Y-62149743D01*
X142499476Y-62140897D01*
X142499476Y-61690102D01*
X142519161Y-61623063D01*
X142535790Y-61602426D01*
X145866657Y-58271558D01*
X145868000Y-58270257D01*
X145953366Y-58190094D01*
X146027982Y-58099896D01*
X146029217Y-58098450D01*
X146106665Y-58010605D01*
X146127182Y-57980413D01*
X146130662Y-57975779D01*
X146153923Y-57947663D01*
X146216694Y-57848749D01*
X146217688Y-57847237D01*
X146283517Y-57750375D01*
X146300078Y-57717869D01*
X146302961Y-57712813D01*
X146322513Y-57682007D01*
X146326412Y-57673720D01*
X146372762Y-57621440D01*
X146440020Y-57602518D01*
X146454147Y-57603487D01*
G37*
%TD.AperFunction*%
%TA.AperFunction,NonConductor*%
G36*
X151705810Y-60408920D02*
G01*
X151761743Y-60450792D01*
X151786160Y-60516256D01*
X151786476Y-60525102D01*
X151786476Y-60848897D01*
X151766791Y-60915936D01*
X151750157Y-60936578D01*
X142711157Y-69975578D01*
X142649834Y-70009063D01*
X142580142Y-70004079D01*
X142524209Y-69962207D01*
X142499792Y-69896743D01*
X142499476Y-69887897D01*
X142499476Y-69564102D01*
X142519161Y-69497063D01*
X142535790Y-69476426D01*
X150946657Y-61065558D01*
X150948000Y-61064257D01*
X151033366Y-60984094D01*
X151056615Y-60955989D01*
X151060537Y-60951678D01*
X151574796Y-60437420D01*
X151636118Y-60403936D01*
X151705810Y-60408920D01*
G37*
%TD.AperFunction*%
%TA.AperFunction,NonConductor*%
G36*
X134779894Y-52090185D02*
G01*
X134825649Y-52142989D01*
X134835593Y-52212147D01*
X134806568Y-52275703D01*
X134797739Y-52284892D01*
X134680584Y-52394907D01*
X134680582Y-52394909D01*
X134480030Y-52637334D01*
X134480027Y-52637338D01*
X134311440Y-52902990D01*
X134311437Y-52902996D01*
X134177475Y-53187678D01*
X134177473Y-53187683D01*
X134080246Y-53486916D01*
X134021287Y-53795988D01*
X134021286Y-53795995D01*
X134006476Y-54031405D01*
X134006476Y-55188594D01*
X134021286Y-55424004D01*
X134021287Y-55424011D01*
X134080246Y-55733083D01*
X134177473Y-56032316D01*
X134177475Y-56032321D01*
X134311437Y-56317003D01*
X134311440Y-56317009D01*
X134480027Y-56582661D01*
X134480030Y-56582665D01*
X134680582Y-56825090D01*
X134680584Y-56825092D01*
X134909944Y-57040476D01*
X134909954Y-57040484D01*
X135164480Y-57225408D01*
X135164485Y-57225410D01*
X135164492Y-57225416D01*
X135440210Y-57376994D01*
X135440215Y-57376996D01*
X135440217Y-57376997D01*
X135440218Y-57376998D01*
X135732747Y-57492818D01*
X135732750Y-57492819D01*
X136037499Y-57571065D01*
X136037503Y-57571066D01*
X136102986Y-57579338D01*
X136349646Y-57610499D01*
X136349655Y-57610499D01*
X136349658Y-57610500D01*
X136349660Y-57610500D01*
X136664292Y-57610500D01*
X136664294Y-57610500D01*
X136664297Y-57610499D01*
X136664305Y-57610499D01*
X136850569Y-57586968D01*
X136976449Y-57571066D01*
X137281201Y-57492819D01*
X137281204Y-57492818D01*
X137573733Y-57376998D01*
X137573735Y-57376996D01*
X137573742Y-57376994D01*
X137717239Y-57298104D01*
X137785468Y-57283058D01*
X137836711Y-57298104D01*
X137980210Y-57376994D01*
X137980212Y-57376995D01*
X137980218Y-57376998D01*
X138272747Y-57492818D01*
X138272750Y-57492819D01*
X138577499Y-57571065D01*
X138577503Y-57571066D01*
X138642986Y-57579338D01*
X138889646Y-57610499D01*
X138889655Y-57610499D01*
X138889658Y-57610500D01*
X138889660Y-57610500D01*
X139155872Y-57610500D01*
X139222911Y-57630185D01*
X139268666Y-57682989D01*
X139278610Y-57752147D01*
X139249585Y-57815703D01*
X139243553Y-57822181D01*
X138999554Y-58066181D01*
X138938231Y-58099666D01*
X138911873Y-58102500D01*
X130916125Y-58102500D01*
X130812740Y-58108918D01*
X130812737Y-58108919D01*
X130569360Y-58159950D01*
X130569350Y-58159953D01*
X130337706Y-58250342D01*
X130124073Y-58377639D01*
X129934326Y-58538348D01*
X129934324Y-58538350D01*
X129773615Y-58728097D01*
X129646318Y-58941730D01*
X129555929Y-59173374D01*
X129555926Y-59173384D01*
X129504895Y-59416761D01*
X129504894Y-59416764D01*
X129498476Y-59520149D01*
X129498476Y-64685850D01*
X129504894Y-64789235D01*
X129504895Y-64789238D01*
X129555926Y-65032615D01*
X129555929Y-65032625D01*
X129646318Y-65264269D01*
X129773615Y-65477902D01*
X129934324Y-65667649D01*
X129934326Y-65667651D01*
X130124073Y-65828360D01*
X130124079Y-65828363D01*
X130124082Y-65828366D01*
X130300482Y-65933477D01*
X130347996Y-65984704D01*
X130360272Y-66053487D01*
X130333413Y-66117988D01*
X130300482Y-66146523D01*
X130124073Y-66251639D01*
X129934326Y-66412348D01*
X129934324Y-66412350D01*
X129773615Y-66602097D01*
X129646318Y-66815730D01*
X129555929Y-67047374D01*
X129555926Y-67047384D01*
X129504895Y-67290761D01*
X129504894Y-67290764D01*
X129498476Y-67394149D01*
X129498476Y-68058830D01*
X129478791Y-68125869D01*
X129459361Y-68149221D01*
X129457882Y-68150609D01*
X129377741Y-68235950D01*
X129376386Y-68237348D01*
X125496324Y-72117410D01*
X125494926Y-72118765D01*
X125409593Y-72198899D01*
X125409581Y-72198911D01*
X125334972Y-72289097D01*
X125333707Y-72290578D01*
X125294488Y-72335062D01*
X125235388Y-72372331D01*
X125165521Y-72371732D01*
X125107069Y-72333455D01*
X125078590Y-72269653D01*
X125077476Y-72253073D01*
X125077476Y-52194499D01*
X125097161Y-52127461D01*
X125149965Y-52081706D01*
X125201476Y-52070500D01*
X134712855Y-52070500D01*
X134779894Y-52090185D01*
G37*
%TD.AperFunction*%
%TA.AperFunction,NonConductor*%
G36*
X156992679Y-55952095D02*
G01*
X157029407Y-56007491D01*
X157037471Y-56032312D01*
X157037475Y-56032321D01*
X157171436Y-56317002D01*
X157171437Y-56317003D01*
X157171439Y-56317007D01*
X157340029Y-56582663D01*
X157340031Y-56582665D01*
X157340041Y-56582681D01*
X157342324Y-56585823D01*
X157340853Y-56586891D01*
X157365573Y-56644333D01*
X157366476Y-56659274D01*
X157366476Y-65734389D01*
X157372606Y-65843541D01*
X157372607Y-65843554D01*
X157421379Y-66101322D01*
X157421380Y-66101327D01*
X157421381Y-66101332D01*
X157421382Y-66101333D01*
X157508035Y-66348974D01*
X157630630Y-66580933D01*
X157786426Y-66792031D01*
X157971945Y-66977550D01*
X158183043Y-67133346D01*
X158415002Y-67255941D01*
X158662643Y-67342594D01*
X158662647Y-67342594D01*
X158662648Y-67342595D01*
X158662653Y-67342596D01*
X158920421Y-67391368D01*
X158920423Y-67391368D01*
X158920433Y-67391370D01*
X159029584Y-67397500D01*
X159029601Y-67397500D01*
X159704351Y-67397500D01*
X159704368Y-67397500D01*
X159813519Y-67391370D01*
X160071309Y-67342594D01*
X160318950Y-67255941D01*
X160550909Y-67133346D01*
X160563345Y-67124167D01*
X160628970Y-67100198D01*
X160697141Y-67115513D01*
X160710591Y-67124156D01*
X160723043Y-67133346D01*
X160723048Y-67133348D01*
X160723050Y-67133350D01*
X160828966Y-67189328D01*
X160955002Y-67255941D01*
X161202643Y-67342594D01*
X161202647Y-67342594D01*
X161202648Y-67342595D01*
X161202653Y-67342596D01*
X161460421Y-67391368D01*
X161460423Y-67391368D01*
X161460433Y-67391370D01*
X161569584Y-67397500D01*
X161569601Y-67397500D01*
X162244351Y-67397500D01*
X162244368Y-67397500D01*
X162353519Y-67391370D01*
X162611309Y-67342594D01*
X162858950Y-67255941D01*
X163090909Y-67133346D01*
X163103345Y-67124167D01*
X163168970Y-67100198D01*
X163237141Y-67115513D01*
X163250591Y-67124156D01*
X163263043Y-67133346D01*
X163263048Y-67133348D01*
X163263050Y-67133350D01*
X163368966Y-67189328D01*
X163495002Y-67255941D01*
X163742643Y-67342594D01*
X163742647Y-67342594D01*
X163742648Y-67342595D01*
X163742653Y-67342596D01*
X164000421Y-67391368D01*
X164000423Y-67391368D01*
X164000433Y-67391370D01*
X164109584Y-67397500D01*
X164109601Y-67397500D01*
X164784351Y-67397500D01*
X164784368Y-67397500D01*
X164893519Y-67391370D01*
X165151309Y-67342594D01*
X165398950Y-67255941D01*
X165630909Y-67133346D01*
X165643345Y-67124167D01*
X165708970Y-67100198D01*
X165777141Y-67115513D01*
X165790591Y-67124156D01*
X165803043Y-67133346D01*
X165803048Y-67133348D01*
X165803050Y-67133350D01*
X165908966Y-67189328D01*
X166035002Y-67255941D01*
X166282643Y-67342594D01*
X166282647Y-67342594D01*
X166282648Y-67342595D01*
X166282653Y-67342596D01*
X166540421Y-67391368D01*
X166540423Y-67391368D01*
X166540433Y-67391370D01*
X166649584Y-67397500D01*
X166649601Y-67397500D01*
X167324351Y-67397500D01*
X167324368Y-67397500D01*
X167433519Y-67391370D01*
X167691309Y-67342594D01*
X167938950Y-67255941D01*
X168170909Y-67133346D01*
X168382007Y-66977550D01*
X168567526Y-66792031D01*
X168723322Y-66580933D01*
X168845917Y-66348974D01*
X168932570Y-66101333D01*
X168981346Y-65843543D01*
X168987476Y-65734392D01*
X168987476Y-64059608D01*
X168987475Y-57702869D01*
X169007161Y-57635831D01*
X169059965Y-57590076D01*
X169127017Y-57579848D01*
X169369646Y-57610499D01*
X169369655Y-57610499D01*
X169369658Y-57610500D01*
X169369660Y-57610500D01*
X169684292Y-57610500D01*
X169684294Y-57610500D01*
X169684297Y-57610499D01*
X169684305Y-57610499D01*
X169870569Y-57586968D01*
X169996449Y-57571066D01*
X170301201Y-57492819D01*
X170301204Y-57492818D01*
X170593733Y-57376998D01*
X170593735Y-57376996D01*
X170593742Y-57376994D01*
X170737239Y-57298104D01*
X170805468Y-57283058D01*
X170856711Y-57298104D01*
X171000210Y-57376994D01*
X171000212Y-57376995D01*
X171000218Y-57376998D01*
X171292747Y-57492818D01*
X171292750Y-57492819D01*
X171597499Y-57571065D01*
X171597503Y-57571066D01*
X171662986Y-57579338D01*
X171909646Y-57610499D01*
X171909655Y-57610499D01*
X171909658Y-57610500D01*
X171909660Y-57610500D01*
X172224292Y-57610500D01*
X172224294Y-57610500D01*
X172224297Y-57610499D01*
X172224305Y-57610499D01*
X172410569Y-57586968D01*
X172536449Y-57571066D01*
X172841201Y-57492819D01*
X172841204Y-57492818D01*
X173133733Y-57376998D01*
X173133734Y-57376997D01*
X173133732Y-57376997D01*
X173133742Y-57376994D01*
X173409460Y-57225416D01*
X173664006Y-57040478D01*
X173893366Y-56825094D01*
X174006434Y-56688418D01*
X174064332Y-56649313D01*
X174134184Y-56647717D01*
X174193809Y-56684138D01*
X174224279Y-56747014D01*
X174225976Y-56767461D01*
X174225976Y-73472214D01*
X174206291Y-73539253D01*
X174153487Y-73585008D01*
X174101976Y-73596214D01*
X146462365Y-73596214D01*
X146395326Y-73576529D01*
X146349571Y-73523725D01*
X146339627Y-73454567D01*
X146368652Y-73391011D01*
X146374684Y-73384533D01*
X153612693Y-66146523D01*
X156026657Y-63732558D01*
X156028000Y-63731257D01*
X156113366Y-63651094D01*
X156187982Y-63560896D01*
X156189217Y-63559450D01*
X156266665Y-63471605D01*
X156287182Y-63441413D01*
X156290662Y-63436779D01*
X156313923Y-63408663D01*
X156376691Y-63309754D01*
X156377685Y-63308242D01*
X156443518Y-63211374D01*
X156460087Y-63178852D01*
X156462965Y-63173808D01*
X156482513Y-63143007D01*
X156532360Y-63037074D01*
X156533172Y-63035415D01*
X156586359Y-62931032D01*
X156598717Y-62896701D01*
X156600942Y-62891330D01*
X156616479Y-62858315D01*
X156652667Y-62746935D01*
X156653256Y-62745212D01*
X156692938Y-62634996D01*
X156700897Y-62599383D01*
X156702429Y-62593786D01*
X156713707Y-62559079D01*
X156735641Y-62444094D01*
X156736036Y-62442186D01*
X156761571Y-62327951D01*
X156761574Y-62327938D01*
X156765007Y-62291612D01*
X156765825Y-62285857D01*
X156772664Y-62250015D01*
X156772664Y-62250014D01*
X156772665Y-62250010D01*
X156778972Y-62149743D01*
X156780014Y-62133180D01*
X156780165Y-62131268D01*
X156783034Y-62100912D01*
X156791184Y-62014698D01*
X156789051Y-61946849D01*
X156787507Y-61897674D01*
X156787476Y-61895727D01*
X156787476Y-56045808D01*
X156807161Y-55978769D01*
X156859965Y-55933014D01*
X156929123Y-55923070D01*
X156992679Y-55952095D01*
G37*
%TD.AperFunction*%
%TA.AperFunction,NonConductor*%
G36*
X146286548Y-73575182D02*
G01*
X146342481Y-73617054D01*
X146366898Y-73682518D01*
X146367214Y-73691364D01*
X146367214Y-81409536D01*
X174101976Y-81409536D01*
X174169015Y-81429221D01*
X174214770Y-81482025D01*
X174225976Y-81533536D01*
X174225976Y-93417734D01*
X174206291Y-93484773D01*
X174153487Y-93530528D01*
X174084329Y-93540472D01*
X174020773Y-93511447D01*
X173984935Y-93458690D01*
X173925917Y-93290026D01*
X173803322Y-93058067D01*
X173647526Y-92846969D01*
X173462007Y-92661450D01*
X173250909Y-92505654D01*
X173250905Y-92505652D01*
X173250904Y-92505651D01*
X173018954Y-92383061D01*
X173018953Y-92383060D01*
X173018950Y-92383059D01*
X172771309Y-92296406D01*
X172771308Y-92296405D01*
X172771303Y-92296404D01*
X172771298Y-92296403D01*
X172513530Y-92247631D01*
X172513520Y-92247630D01*
X172513519Y-92247630D01*
X172404368Y-92241500D01*
X171729584Y-92241500D01*
X171620433Y-92247630D01*
X171620432Y-92247630D01*
X171620421Y-92247631D01*
X171362653Y-92296403D01*
X171362648Y-92296404D01*
X171311279Y-92314379D01*
X171115002Y-92383059D01*
X171115000Y-92383059D01*
X171114997Y-92383061D01*
X170883040Y-92505655D01*
X170883035Y-92505659D01*
X170870607Y-92514831D01*
X170804977Y-92538801D01*
X170736807Y-92523483D01*
X170723345Y-92514831D01*
X170710916Y-92505659D01*
X170710911Y-92505655D01*
X170478954Y-92383061D01*
X170478953Y-92383060D01*
X170478950Y-92383059D01*
X170231309Y-92296406D01*
X170231308Y-92296405D01*
X170231303Y-92296404D01*
X170231298Y-92296403D01*
X169973530Y-92247631D01*
X169973520Y-92247630D01*
X169973519Y-92247630D01*
X169864368Y-92241500D01*
X169189584Y-92241500D01*
X169080433Y-92247630D01*
X169080432Y-92247630D01*
X169080421Y-92247631D01*
X168822653Y-92296403D01*
X168822648Y-92296404D01*
X168771279Y-92314379D01*
X168575002Y-92383059D01*
X168575000Y-92383059D01*
X168574997Y-92383061D01*
X168343040Y-92505655D01*
X168343035Y-92505659D01*
X168330607Y-92514831D01*
X168264977Y-92538801D01*
X168196807Y-92523483D01*
X168183345Y-92514831D01*
X168170916Y-92505659D01*
X168170911Y-92505655D01*
X167938954Y-92383061D01*
X167938953Y-92383060D01*
X167938950Y-92383059D01*
X167691309Y-92296406D01*
X167691308Y-92296405D01*
X167691303Y-92296404D01*
X167691298Y-92296403D01*
X167433530Y-92247631D01*
X167433520Y-92247630D01*
X167433519Y-92247630D01*
X167324368Y-92241500D01*
X166649584Y-92241500D01*
X166540433Y-92247630D01*
X166540432Y-92247630D01*
X166540421Y-92247631D01*
X166282653Y-92296403D01*
X166282648Y-92296404D01*
X166231279Y-92314379D01*
X166035002Y-92383059D01*
X166035000Y-92383059D01*
X166034997Y-92383061D01*
X165803040Y-92505655D01*
X165803035Y-92505659D01*
X165790607Y-92514831D01*
X165724977Y-92538801D01*
X165656807Y-92523483D01*
X165643345Y-92514831D01*
X165630916Y-92505659D01*
X165630911Y-92505655D01*
X165398954Y-92383061D01*
X165398953Y-92383060D01*
X165398950Y-92383059D01*
X165151309Y-92296406D01*
X165151308Y-92296405D01*
X165151303Y-92296404D01*
X165151298Y-92296403D01*
X164893530Y-92247631D01*
X164893520Y-92247630D01*
X164893519Y-92247630D01*
X164784368Y-92241500D01*
X164109584Y-92241500D01*
X164000433Y-92247630D01*
X164000432Y-92247630D01*
X164000421Y-92247631D01*
X163742653Y-92296403D01*
X163742648Y-92296404D01*
X163691279Y-92314379D01*
X163495002Y-92383059D01*
X163495000Y-92383059D01*
X163494997Y-92383061D01*
X163263040Y-92505655D01*
X163263035Y-92505659D01*
X163250607Y-92514831D01*
X163184977Y-92538801D01*
X163116807Y-92523483D01*
X163103345Y-92514831D01*
X163090916Y-92505659D01*
X163090911Y-92505655D01*
X162858954Y-92383061D01*
X162858953Y-92383060D01*
X162858950Y-92383059D01*
X162611309Y-92296406D01*
X162611308Y-92296405D01*
X162611303Y-92296404D01*
X162611298Y-92296403D01*
X162353530Y-92247631D01*
X162353520Y-92247630D01*
X162353519Y-92247630D01*
X162244368Y-92241500D01*
X161569584Y-92241500D01*
X161460433Y-92247630D01*
X161460432Y-92247630D01*
X161460421Y-92247631D01*
X161202653Y-92296403D01*
X161202648Y-92296404D01*
X161151279Y-92314379D01*
X160955002Y-92383059D01*
X160955000Y-92383059D01*
X160954997Y-92383061D01*
X160723040Y-92505655D01*
X160723035Y-92505659D01*
X160710607Y-92514831D01*
X160644977Y-92538801D01*
X160576807Y-92523483D01*
X160563345Y-92514831D01*
X160550916Y-92505659D01*
X160550911Y-92505655D01*
X160318954Y-92383061D01*
X160318953Y-92383060D01*
X160318950Y-92383059D01*
X160071309Y-92296406D01*
X160071308Y-92296405D01*
X160071303Y-92296404D01*
X160071298Y-92296403D01*
X159813530Y-92247631D01*
X159813520Y-92247630D01*
X159813519Y-92247630D01*
X159704368Y-92241500D01*
X159029584Y-92241500D01*
X158920433Y-92247630D01*
X158920432Y-92247630D01*
X158920421Y-92247631D01*
X158662653Y-92296403D01*
X158662648Y-92296404D01*
X158611279Y-92314379D01*
X158415002Y-92383059D01*
X158415000Y-92383059D01*
X158414997Y-92383061D01*
X158183043Y-92505654D01*
X158170604Y-92514834D01*
X158104974Y-92538802D01*
X158036804Y-92523483D01*
X158023342Y-92514830D01*
X158010908Y-92505653D01*
X157778954Y-92383061D01*
X157778953Y-92383060D01*
X157778950Y-92383059D01*
X157531309Y-92296406D01*
X157531308Y-92296405D01*
X157531303Y-92296404D01*
X157531298Y-92296403D01*
X157273530Y-92247631D01*
X157273520Y-92247630D01*
X157273519Y-92247630D01*
X157164368Y-92241500D01*
X156489584Y-92241500D01*
X156380433Y-92247630D01*
X156380432Y-92247630D01*
X156380421Y-92247631D01*
X156122653Y-92296403D01*
X156122648Y-92296404D01*
X156071279Y-92314379D01*
X155875002Y-92383059D01*
X155875000Y-92383059D01*
X155874997Y-92383061D01*
X155643040Y-92505655D01*
X155643035Y-92505659D01*
X155630607Y-92514831D01*
X155564977Y-92538801D01*
X155496807Y-92523483D01*
X155483345Y-92514831D01*
X155470916Y-92505659D01*
X155470911Y-92505655D01*
X155238954Y-92383061D01*
X155238953Y-92383060D01*
X155238950Y-92383059D01*
X154991309Y-92296406D01*
X154991308Y-92296405D01*
X154991303Y-92296404D01*
X154991298Y-92296403D01*
X154733530Y-92247631D01*
X154733520Y-92247630D01*
X154733519Y-92247630D01*
X154624368Y-92241500D01*
X153949584Y-92241500D01*
X153840433Y-92247630D01*
X153840432Y-92247630D01*
X153840421Y-92247631D01*
X153582653Y-92296403D01*
X153582648Y-92296404D01*
X153531279Y-92314379D01*
X153335002Y-92383059D01*
X153335000Y-92383059D01*
X153334997Y-92383061D01*
X153103047Y-92505651D01*
X152891944Y-92661450D01*
X152706426Y-92846968D01*
X152550627Y-93058071D01*
X152428034Y-93290027D01*
X152372017Y-93450115D01*
X152331296Y-93506891D01*
X152266343Y-93532638D01*
X152197781Y-93519182D01*
X152147379Y-93470794D01*
X152137935Y-93450115D01*
X152081917Y-93290027D01*
X152081917Y-93290026D01*
X151959322Y-93058067D01*
X151803526Y-92846969D01*
X151618007Y-92661450D01*
X151406909Y-92505654D01*
X151406905Y-92505652D01*
X151406904Y-92505651D01*
X151174954Y-92383061D01*
X151174953Y-92383060D01*
X151174950Y-92383059D01*
X150927309Y-92296406D01*
X150927308Y-92296405D01*
X150927303Y-92296404D01*
X150927298Y-92296403D01*
X150669530Y-92247631D01*
X150669520Y-92247630D01*
X150669519Y-92247630D01*
X150560368Y-92241500D01*
X149885584Y-92241500D01*
X149776433Y-92247630D01*
X149776432Y-92247630D01*
X149776421Y-92247631D01*
X149518653Y-92296403D01*
X149518648Y-92296404D01*
X149467279Y-92314379D01*
X149271002Y-92383059D01*
X149271000Y-92383059D01*
X149270997Y-92383061D01*
X149039040Y-92505655D01*
X149039035Y-92505659D01*
X149026607Y-92514831D01*
X148960977Y-92538801D01*
X148892807Y-92523483D01*
X148879345Y-92514831D01*
X148866916Y-92505659D01*
X148866911Y-92505655D01*
X148634954Y-92383061D01*
X148634953Y-92383060D01*
X148634950Y-92383059D01*
X148387309Y-92296406D01*
X148387308Y-92296405D01*
X148387303Y-92296404D01*
X148387298Y-92296403D01*
X148129530Y-92247631D01*
X148129520Y-92247630D01*
X148129519Y-92247630D01*
X148020368Y-92241500D01*
X147345584Y-92241500D01*
X147236433Y-92247630D01*
X147236432Y-92247630D01*
X147236421Y-92247631D01*
X146978653Y-92296403D01*
X146978648Y-92296404D01*
X146927279Y-92314379D01*
X146731002Y-92383059D01*
X146731000Y-92383059D01*
X146730997Y-92383061D01*
X146499040Y-92505655D01*
X146499035Y-92505659D01*
X146486607Y-92514831D01*
X146420977Y-92538801D01*
X146352807Y-92523483D01*
X146339345Y-92514831D01*
X146326916Y-92505659D01*
X146326911Y-92505655D01*
X146094954Y-92383061D01*
X146094953Y-92383060D01*
X146094950Y-92383059D01*
X145847309Y-92296406D01*
X145847308Y-92296405D01*
X145847303Y-92296404D01*
X145847298Y-92296403D01*
X145589530Y-92247631D01*
X145589520Y-92247630D01*
X145589519Y-92247630D01*
X145480368Y-92241500D01*
X144805584Y-92241500D01*
X144696433Y-92247630D01*
X144696432Y-92247630D01*
X144696421Y-92247631D01*
X144438653Y-92296403D01*
X144438648Y-92296404D01*
X144387279Y-92314379D01*
X144191002Y-92383059D01*
X144191000Y-92383059D01*
X144190997Y-92383061D01*
X143959043Y-92505654D01*
X143946604Y-92514834D01*
X143880974Y-92538802D01*
X143812804Y-92523483D01*
X143799342Y-92514830D01*
X143786908Y-92505653D01*
X143554954Y-92383061D01*
X143554953Y-92383060D01*
X143554950Y-92383059D01*
X143307309Y-92296406D01*
X143307308Y-92296405D01*
X143307303Y-92296404D01*
X143307298Y-92296403D01*
X143049530Y-92247631D01*
X143049520Y-92247630D01*
X143049519Y-92247630D01*
X142940368Y-92241500D01*
X142265584Y-92241500D01*
X142156433Y-92247630D01*
X142156432Y-92247630D01*
X142156421Y-92247631D01*
X141898653Y-92296403D01*
X141898648Y-92296404D01*
X141847279Y-92314379D01*
X141651002Y-92383059D01*
X141651000Y-92383059D01*
X141650997Y-92383061D01*
X141419040Y-92505655D01*
X141419035Y-92505659D01*
X141406607Y-92514831D01*
X141340977Y-92538801D01*
X141272807Y-92523483D01*
X141259345Y-92514831D01*
X141246916Y-92505659D01*
X141246911Y-92505655D01*
X141014954Y-92383061D01*
X141014953Y-92383060D01*
X141014950Y-92383059D01*
X140767309Y-92296406D01*
X140767308Y-92296405D01*
X140767303Y-92296404D01*
X140767298Y-92296403D01*
X140509530Y-92247631D01*
X140509520Y-92247630D01*
X140509519Y-92247630D01*
X140400368Y-92241500D01*
X139725584Y-92241500D01*
X139616433Y-92247630D01*
X139616432Y-92247630D01*
X139616421Y-92247631D01*
X139358653Y-92296403D01*
X139358648Y-92296404D01*
X139307279Y-92314379D01*
X139111002Y-92383059D01*
X139111000Y-92383059D01*
X139110997Y-92383061D01*
X138879040Y-92505655D01*
X138879035Y-92505659D01*
X138866607Y-92514831D01*
X138800977Y-92538801D01*
X138732807Y-92523483D01*
X138719345Y-92514831D01*
X138706916Y-92505659D01*
X138706911Y-92505655D01*
X138474954Y-92383061D01*
X138474953Y-92383060D01*
X138474950Y-92383059D01*
X138227309Y-92296406D01*
X138227308Y-92296405D01*
X138227303Y-92296404D01*
X138227298Y-92296403D01*
X137969530Y-92247631D01*
X137969520Y-92247630D01*
X137969519Y-92247630D01*
X137860368Y-92241500D01*
X137185584Y-92241500D01*
X137076433Y-92247630D01*
X137076432Y-92247630D01*
X137076421Y-92247631D01*
X136818653Y-92296403D01*
X136818634Y-92296408D01*
X136777452Y-92310818D01*
X136707674Y-92314379D01*
X136647047Y-92279649D01*
X136614821Y-92217655D01*
X136612500Y-92193776D01*
X136612500Y-91373500D01*
X136632185Y-91306461D01*
X136684989Y-91260706D01*
X136736500Y-91249500D01*
X141099831Y-91249500D01*
X141099842Y-91249500D01*
X141203237Y-91243081D01*
X141446614Y-91192050D01*
X141446621Y-91192046D01*
X141446625Y-91192046D01*
X141525980Y-91161080D01*
X141678273Y-91101656D01*
X141891894Y-90974366D01*
X141891898Y-90974361D01*
X141891902Y-90974360D01*
X142081649Y-90813651D01*
X142081651Y-90813649D01*
X142242360Y-90623902D01*
X142242361Y-90623898D01*
X142242366Y-90623894D01*
X142369656Y-90410273D01*
X142460050Y-90178614D01*
X142511081Y-89935237D01*
X142515390Y-89865816D01*
X142539192Y-89800125D01*
X142594730Y-89757730D01*
X142639153Y-89749500D01*
X158205823Y-89749500D01*
X158272862Y-89769185D01*
X158318617Y-89821989D01*
X158329585Y-89865816D01*
X158333894Y-89935235D01*
X158333895Y-89935238D01*
X158384926Y-90178615D01*
X158384929Y-90178625D01*
X158475318Y-90410269D01*
X158602615Y-90623902D01*
X158763324Y-90813649D01*
X158763326Y-90813651D01*
X158953073Y-90974360D01*
X158953079Y-90974363D01*
X158953082Y-90974366D01*
X159166703Y-91101656D01*
X159166706Y-91101657D01*
X159398350Y-91192046D01*
X159398357Y-91192048D01*
X159398362Y-91192050D01*
X159641739Y-91243081D01*
X159745134Y-91249500D01*
X159745145Y-91249500D01*
X169910807Y-91249500D01*
X169910818Y-91249500D01*
X170014213Y-91243081D01*
X170257590Y-91192050D01*
X170257597Y-91192046D01*
X170257601Y-91192046D01*
X170336956Y-91161080D01*
X170489249Y-91101656D01*
X170702870Y-90974366D01*
X170702874Y-90974361D01*
X170702878Y-90974360D01*
X170892625Y-90813651D01*
X170892627Y-90813649D01*
X171053336Y-90623902D01*
X171053337Y-90623898D01*
X171053342Y-90623894D01*
X171180632Y-90410273D01*
X171271026Y-90178614D01*
X171322057Y-89935237D01*
X171328476Y-89831842D01*
X171328476Y-84666158D01*
X171322057Y-84562763D01*
X171271026Y-84319386D01*
X171271024Y-84319381D01*
X171271022Y-84319374D01*
X171180633Y-84087730D01*
X171180632Y-84087727D01*
X171053342Y-83874106D01*
X171053339Y-83874103D01*
X171053336Y-83874097D01*
X170892627Y-83684350D01*
X170892625Y-83684348D01*
X170702878Y-83523639D01*
X170702870Y-83523634D01*
X170489249Y-83396344D01*
X170489247Y-83396343D01*
X170489245Y-83396342D01*
X170257601Y-83305953D01*
X170257591Y-83305950D01*
X170014214Y-83254919D01*
X170014211Y-83254918D01*
X169910826Y-83248500D01*
X169910818Y-83248500D01*
X159745134Y-83248500D01*
X159745125Y-83248500D01*
X159641740Y-83254918D01*
X159641737Y-83254919D01*
X159398360Y-83305950D01*
X159398350Y-83305953D01*
X159166706Y-83396342D01*
X158953073Y-83523639D01*
X158763326Y-83684348D01*
X158763324Y-83684350D01*
X158602615Y-83874097D01*
X158475318Y-84087730D01*
X158384929Y-84319374D01*
X158384926Y-84319384D01*
X158333895Y-84562761D01*
X158333894Y-84562764D01*
X158329585Y-84632184D01*
X158305784Y-84697875D01*
X158250246Y-84740270D01*
X158205823Y-84748500D01*
X142639153Y-84748500D01*
X142572114Y-84728815D01*
X142526359Y-84676011D01*
X142515391Y-84632184D01*
X142511081Y-84562764D01*
X142511081Y-84562763D01*
X142460050Y-84319386D01*
X142460048Y-84319381D01*
X142460046Y-84319374D01*
X142369657Y-84087730D01*
X142369656Y-84087727D01*
X142242366Y-83874106D01*
X142242363Y-83874103D01*
X142242360Y-83874097D01*
X142081651Y-83684350D01*
X142081649Y-83684348D01*
X141891902Y-83523639D01*
X141891894Y-83523634D01*
X141678273Y-83396344D01*
X141678271Y-83396343D01*
X141678269Y-83396342D01*
X141446625Y-83305953D01*
X141446615Y-83305950D01*
X141203238Y-83254919D01*
X141203235Y-83254918D01*
X141099850Y-83248500D01*
X141099842Y-83248500D01*
X131395079Y-83248500D01*
X131328040Y-83228815D01*
X131307398Y-83212181D01*
X129772795Y-81677577D01*
X129739310Y-81616254D01*
X129736476Y-81589896D01*
X129736476Y-81388601D01*
X129756161Y-81321562D01*
X129808965Y-81275807D01*
X129878123Y-81265863D01*
X129940617Y-81293979D01*
X130124073Y-81449360D01*
X130124079Y-81449363D01*
X130124082Y-81449366D01*
X130337703Y-81576656D01*
X130337706Y-81576657D01*
X130569350Y-81667046D01*
X130569357Y-81667048D01*
X130569362Y-81667050D01*
X130812739Y-81718081D01*
X130916134Y-81724500D01*
X130916145Y-81724500D01*
X141081807Y-81724500D01*
X141081818Y-81724500D01*
X141185213Y-81718081D01*
X141428590Y-81667050D01*
X141428597Y-81667046D01*
X141428601Y-81667046D01*
X141558768Y-81616254D01*
X141660249Y-81576656D01*
X141873870Y-81449366D01*
X141873874Y-81449361D01*
X141873878Y-81449360D01*
X142063625Y-81288651D01*
X142063627Y-81288649D01*
X142224336Y-81098902D01*
X142224337Y-81098898D01*
X142224342Y-81098894D01*
X142351632Y-80885273D01*
X142442026Y-80653614D01*
X142493057Y-80410237D01*
X142499476Y-80306842D01*
X142499476Y-77311102D01*
X142519161Y-77244063D01*
X142535790Y-77223426D01*
X146155534Y-73603682D01*
X146216856Y-73570198D01*
X146286548Y-73575182D01*
G37*
%TD.AperFunction*%
%TA.AperFunction,NonConductor*%
G36*
X125282679Y-84244227D02*
G01*
X125294486Y-84255933D01*
X125307682Y-84270901D01*
X125333705Y-84300419D01*
X125334970Y-84301900D01*
X125409582Y-84392090D01*
X125409584Y-84392092D01*
X125494926Y-84472234D01*
X125496293Y-84473558D01*
X129480179Y-88457445D01*
X129480180Y-88457445D01*
X129513665Y-88518768D01*
X129516499Y-88545126D01*
X129516499Y-89831831D01*
X129516500Y-89831850D01*
X129522918Y-89935235D01*
X129522919Y-89935238D01*
X129573950Y-90178615D01*
X129573953Y-90178625D01*
X129664342Y-90410269D01*
X129791639Y-90623902D01*
X129952348Y-90813649D01*
X129952350Y-90813651D01*
X130142097Y-90974360D01*
X130142103Y-90974363D01*
X130142106Y-90974366D01*
X130355727Y-91101656D01*
X130355730Y-91101657D01*
X130587374Y-91192046D01*
X130587381Y-91192048D01*
X130587386Y-91192050D01*
X130830763Y-91243081D01*
X130934158Y-91249500D01*
X131487500Y-91249500D01*
X131554539Y-91269185D01*
X131600294Y-91321989D01*
X131611500Y-91373500D01*
X131611500Y-92675581D01*
X131591815Y-92742620D01*
X131539011Y-92788375D01*
X131469853Y-92798319D01*
X131406297Y-92769294D01*
X131399819Y-92763262D01*
X131298007Y-92661450D01*
X131086909Y-92505654D01*
X131086905Y-92505652D01*
X131086904Y-92505651D01*
X130854954Y-92383061D01*
X130854953Y-92383060D01*
X130854950Y-92383059D01*
X130607309Y-92296406D01*
X130607308Y-92296405D01*
X130607303Y-92296404D01*
X130607298Y-92296403D01*
X130349530Y-92247631D01*
X130349520Y-92247630D01*
X130349519Y-92247630D01*
X130240368Y-92241500D01*
X129565584Y-92241500D01*
X129456433Y-92247630D01*
X129456432Y-92247630D01*
X129456421Y-92247631D01*
X129198653Y-92296403D01*
X129198648Y-92296404D01*
X129147279Y-92314379D01*
X128951002Y-92383059D01*
X128951000Y-92383059D01*
X128950997Y-92383061D01*
X128719040Y-92505655D01*
X128719035Y-92505659D01*
X128706607Y-92514831D01*
X128640977Y-92538801D01*
X128572807Y-92523483D01*
X128559345Y-92514831D01*
X128546916Y-92505659D01*
X128546911Y-92505655D01*
X128314954Y-92383061D01*
X128314953Y-92383060D01*
X128314950Y-92383059D01*
X128067309Y-92296406D01*
X128067308Y-92296405D01*
X128067303Y-92296404D01*
X128067298Y-92296403D01*
X127809530Y-92247631D01*
X127809520Y-92247630D01*
X127809519Y-92247630D01*
X127700368Y-92241500D01*
X127025584Y-92241500D01*
X126916433Y-92247630D01*
X126916432Y-92247630D01*
X126916421Y-92247631D01*
X126658653Y-92296403D01*
X126658648Y-92296404D01*
X126607279Y-92314379D01*
X126411002Y-92383059D01*
X126411000Y-92383059D01*
X126410997Y-92383061D01*
X126179047Y-92505651D01*
X125967944Y-92661450D01*
X125782426Y-92846968D01*
X125626627Y-93058071D01*
X125504037Y-93290021D01*
X125417380Y-93537672D01*
X125417379Y-93537677D01*
X125368607Y-93795445D01*
X125368606Y-93795458D01*
X125362476Y-93904610D01*
X125362476Y-100826150D01*
X125342791Y-100893189D01*
X125340965Y-100895860D01*
X125306172Y-100950685D01*
X125253630Y-100996741D01*
X125184530Y-101007079D01*
X125120809Y-100978417D01*
X125082700Y-100919855D01*
X125077476Y-100884242D01*
X125077476Y-84337940D01*
X125097161Y-84270901D01*
X125149965Y-84225146D01*
X125219123Y-84215202D01*
X125282679Y-84244227D01*
G37*
%TD.AperFunction*%
%TA.AperFunction,NonConductor*%
G36*
X174193809Y-104944138D02*
G01*
X174224279Y-105007014D01*
X174225976Y-105027461D01*
X174225976Y-105285500D01*
X174206291Y-105352539D01*
X174153487Y-105398294D01*
X174101976Y-105409500D01*
X173861097Y-105409500D01*
X173794058Y-105389815D01*
X173748303Y-105337011D01*
X173738359Y-105267853D01*
X173767384Y-105204297D01*
X173776213Y-105195108D01*
X173893366Y-105085094D01*
X174006434Y-104948418D01*
X174064332Y-104909313D01*
X174134184Y-104907717D01*
X174193809Y-104944138D01*
G37*
%TD.AperFunction*%
%TA.AperFunction,NonConductor*%
G36*
X152348809Y-104950182D02*
G01*
X152352500Y-104954441D01*
X152460586Y-105085094D01*
X152460587Y-105085095D01*
X152577739Y-105195108D01*
X152613134Y-105255349D01*
X152610341Y-105325163D01*
X152570247Y-105382384D01*
X152505582Y-105408845D01*
X152492855Y-105409500D01*
X152021097Y-105409500D01*
X151954058Y-105389815D01*
X151908303Y-105337011D01*
X151898359Y-105267853D01*
X151927384Y-105204297D01*
X151936213Y-105195108D01*
X152053366Y-105085094D01*
X152161433Y-104954462D01*
X152219332Y-104915357D01*
X152289184Y-104913761D01*
X152348809Y-104950182D01*
G37*
%TD.AperFunction*%
%TA.AperFunction,NonConductor*%
G36*
X125282678Y-104762044D02*
G01*
X125306171Y-104789313D01*
X125340029Y-104842664D01*
X125340030Y-104842665D01*
X125540582Y-105085090D01*
X125540584Y-105085092D01*
X125657739Y-105195108D01*
X125693134Y-105255349D01*
X125690341Y-105325163D01*
X125650247Y-105382384D01*
X125585582Y-105408845D01*
X125572855Y-105409500D01*
X125201476Y-105409500D01*
X125134437Y-105389815D01*
X125088682Y-105337011D01*
X125077476Y-105285500D01*
X125077476Y-105085090D01*
X125077476Y-104855753D01*
X125097159Y-104788718D01*
X125149963Y-104742963D01*
X125219122Y-104733019D01*
X125282678Y-104762044D01*
G37*
%TD.AperFunction*%
M02*
