M48
; DRILL file {KiCad 7.0.5} date Tue Jan 16 15:46:38 2024
; FORMAT={-:-/ absolute / metric / decimal}
; #@! TF.CreationDate,2024-01-16T15:46:38+01:00
; #@! TF.GenerationSoftware,Kicad,Pcbnew,7.0.5
; #@! TF.FileFunction,MixedPlating,1,2
FMAT,2
METRIC
; #@! TA.AperFunction,Plated,PTH,ComponentDrill
T1C1.000
%
G90
G05
T1
X127.367Y-102.87
X129.907Y-102.87
X132.447Y-102.87
X134.987Y-102.87
X136.507Y-54.61
X137.527Y-102.87
X139.047Y-54.61
X140.067Y-102.87
X141.587Y-54.61
X142.607Y-102.87
X144.127Y-54.61
X145.147Y-102.87
X146.667Y-54.61
X147.687Y-102.87
X149.207Y-54.61
X150.227Y-102.87
X151.747Y-54.61
X154.287Y-54.61
X154.287Y-102.87
X156.827Y-102.87
X159.367Y-54.61
X159.367Y-102.87
X161.907Y-54.61
X161.907Y-102.87
X164.447Y-54.61
X164.447Y-102.87
X166.987Y-54.61
X166.987Y-102.87
X169.527Y-54.61
X169.527Y-102.87
X172.067Y-54.61
X172.067Y-102.87
T0
M30
